
        <svg xmlns="http://www.w3.org/2000/svg" xmlns:xlink="http://www.w3.org/1999/xlink" version="1.1" width="3172.413793103449" 
        height="1103.448275862069" viewBox="0 0 3172.413793103449 1103.448275862069">
			
			<g transform="scale(8.620689655172415) translate(10, 10)">
				<defs id="SvgjsDefs1027"><linearGradient id="SvgjsLinearGradient1036"><stop id="SvgjsStop1037" stop-color="#2d388a" offset="0"></stop><stop id="SvgjsStop1038" stop-color="#00aeef" offset="1"></stop></linearGradient><linearGradient id="SvgjsLinearGradient1039"><stop id="SvgjsStop1040" stop-color="#2d388a" offset="0"></stop><stop id="SvgjsStop1041" stop-color="#00aeef" offset="1"></stop></linearGradient><linearGradient id="SvgjsLinearGradient1042"><stop id="SvgjsStop1043" stop-color="#2d388a" offset="0"></stop><stop id="SvgjsStop1044" stop-color="#00aeef" offset="1"></stop></linearGradient><linearGradient id="SvgjsLinearGradient1045"><stop id="SvgjsStop1046" stop-color="#2d388a" offset="0"></stop><stop id="SvgjsStop1047" stop-color="#00aeef" offset="1"></stop></linearGradient></defs><g id="SvgjsG1028" featureKey="symbolFeature-0" transform="matrix(0.8709677113135655,0,0,0.8709677113135655,-17.41935422627131,11.470968067293366)" fill="url(#SvgjsLinearGradient1036)"><path xmlns="http://www.w3.org/2000/svg" d="M56,11.5c0-0.1,0-0.2,0-0.3c0-3.3-2.7-6-6-6s-6,2.7-6,6c0,0.1,0,0.2,0,0.3h-1.8c-3,0-5.5,2.5-5.5,5.5v0  c0,3,2.5,5.5,5.5,5.5h15.5c3,0,5.5-2.5,5.5-5.5v0c0-3-2.5-5.5-5.5-5.5H56z M47,11.3c0-1.7,1.3-3,3-3s3,1.3,3,3c0,0.1,0,0.2,0,0.3H47  C47,11.4,47,11.3,47,11.3z"></path><path xmlns="http://www.w3.org/2000/svg" d="M65.2,16.6c0,0.1,0,0.2,0,0.4c0,4.1-3.4,7.5-7.5,7.5H42.3c-4.1,0-7.5-3.4-7.5-7.5c0-0.1,0-0.2,0-0.4H24  c-2.2,0-4,1.8-4,4V88c0,2.2,1.8,4,4,4h52c2.2,0,4-1.8,4-4V20.7c0-2.2-1.8-4-4-4H65.2z M71,87H29c-2.2,0-4-1.8-4-4V33.4  c0-2.2,1.8-4,4-4h42c2.2,0,4,1.8,4,4V83C75,85.2,73.2,87,71,87z"></path><polygon xmlns="http://www.w3.org/2000/svg" points="41,34.5 35.6,39.9 32.4,36.7 30.4,38.7 33.6,41.9 35.6,43.9 43,36.5 "></polygon><rect xmlns="http://www.w3.org/2000/svg" x="46.3" y="35.4" width="21.7" height="3"></rect><rect xmlns="http://www.w3.org/2000/svg" x="46.3" y="40.3" width="13.5" height="3"></rect><polygon xmlns="http://www.w3.org/2000/svg" points="41,47.5 35.6,52.9 32.4,49.7 30.4,51.7 33.6,54.9 35.6,56.9 43,49.5 "></polygon><rect xmlns="http://www.w3.org/2000/svg" x="46.3" y="48.4" width="21.7" height="3"></rect><rect xmlns="http://www.w3.org/2000/svg" x="46.3" y="53.3" width="13.5" height="3"></rect><polygon xmlns="http://www.w3.org/2000/svg" points="41,59.5 35.6,64.9 32.4,61.7 30.4,63.7 33.6,66.9 35.6,68.9 43,61.5 "></polygon><rect xmlns="http://www.w3.org/2000/svg" x="46.3" y="60.4" width="21.7" height="3"></rect><rect xmlns="http://www.w3.org/2000/svg" x="46.3" y="65.3" width="13.5" height="3"></rect><polygon xmlns="http://www.w3.org/2000/svg" points="41,72.5 35.6,77.9 32.4,74.7 30.4,76.7 33.6,79.9 35.6,81.9 43,74.5 "></polygon><rect xmlns="http://www.w3.org/2000/svg" x="46.3" y="73.4" width="21.7" height="3"></rect><rect xmlns="http://www.w3.org/2000/svg" x="46.3" y="78.3" width="13.5" height="3"></rect></g><g id="SvgjsG1029" featureKey="textGroupContainer" transform="matrix(1,0,0,1,347,0)" fill="url(#SvgjsLinearGradient1039)"><rect xmlns="http://www.w3.org/2000/svg" y="0" height="1" width="1" opacity="0"></rect><rect xmlns="http://www.w3.org/2000/svg" y="0" x="-275" width="3" height="108"></rect></g><g id="SvgjsG1030" featureKey="nameFeature-0" transform="matrix(1.0978946729914032,0,0,1.0978946729914032,88.68252607830013,29.63221068724307)" fill="url(#SvgjsLinearGradient1042)"><path d="M9.1 6 l2.92 0 l0 8.92 c0 3.4 -2.46 5.38 -5.4 5.38 s-5.42 -1.98 -5.42 -5.38 l0 -8.92 l2.92 0 l0 8.94 c0 2.04 1.34 2.62 2.5 2.62 c1.14 0 2.48 -0.58 2.48 -2.62 l0 -8.94 z M19.32 6 c3.14 0 5.18 1.9 5.18 4.76 c0 2.82 -2.04 4.58 -5.18 4.58 l-1.98 0 l0 4.66 l-2.92 0 l0 -14 l4.9 0 z M19.14 12.82 c1.44 0 2.44 -0.56 2.44 -2.06 c0 -1.48 -1 -2.08 -2.44 -2.08 l-1.8 0 l0 4.14 l1.8 0 z M37.42 20 l-3.1 0 l-2.98 -4.66 l-0.04 0 l-1.98 0 l0 4.66 l-2.92 0 l0 -14 l4.9 0 c3.14 0 5.18 1.9 5.18 4.76 c0 1.9 -0.92 3.32 -2.48 4.04 z M29.320000000000004 8.68 l0 4.14 l1.8 0 c1.44 0 2.44 -0.56 2.44 -2.06 c0 -1.48 -1 -2.08 -2.44 -2.08 l-1.8 0 z M50.400000000000006 20 l-1.06 -2.5 l-6.76 0 l-1.06 2.5 l-3.1 0 l6.22 -14 l2.64 0 l6.24 14 l-3.12 0 z M43.6 15.120000000000001 l4.72 0 l-2.36 -5.54 z M66.3 6 l3.12 0 l-6.24 14 l-2.64 0 l-6.22 -14 l3.1 0 l4.44 10.42 z M73.94000000000001 17.32 l5.5 0 l0 2.68 l-8.42 0 l0 -14 l2.92 0 l0 11.32 z M90.10000000000001 6 l0 9.28 c0 3.68 -2.94 4.96 -4.94 4.96 c-2.14 0 -3.46 -0.84 -4.32 -1.94 l1.74 -2.14 c0.52 0.58 1.36 1.26 2.42 1.26 c0.76 0 2.18 -0.32 2.18 -2.54 l0 -8.88 l2.92 0 z M103.68 20 l-1.06 -2.5 l-6.76 0 l-1.06 2.5 l-3.1 0 l6.22 -14 l2.64 0 l6.24 14 l-3.12 0 z M96.88000000000001 15.120000000000001 l4.72 0 l-2.36 -5.54 z M111.32000000000002 17.32 l5.5 0 l0 2.68 l-8.42 0 l0 -14 l2.92 0 l0 11.32 z M121.74000000000002 17.32 l5.92 0 l0 2.68 l-6.32 0 l-2.52 0 l0 -14 l2.92 0 l5.74 0 l0 2.68 l-5.74 0 l0 2.96 l4.34 0 l0 2.64 l-4.34 0 l0 3.04 z M141.52000000000004 18.5 c-1.24 1.12 -2.9 1.7 -4.76 1.7 c-3.92 0 -7.3 -2.94 -7.3 -7.2 s3.38 -7.2 7.3 -7.2 c1.84 0 3.48 0.6 4.68 1.66 l-1.76 1.98 c-0.74 -0.52 -1.74 -0.9 -2.76 -0.9 c-2.52 0 -4.42 1.86 -4.42 4.46 s1.9 4.46 4.42 4.46 c1.06 0 2.1 -0.4 2.86 -1 z M158.58000000000004 6 l2.92 0 l0 14 l-2.22 0 l-6.94 -8.68 l0 8.68 l-2.92 0 l0 -14 l2.26 0 l6.9 8.7 l0 -8.7 z M175.08 20 l-1.06 -2.5 l-6.76 0 l-1.06 2.5 l-3.1 0 l6.22 -14 l2.64 0 l6.24 14 l-3.12 0 z M168.28000000000003 15.120000000000001 l4.72 0 l-2.36 -5.54 z M182.72000000000003 17.32 l5.5 0 l0 2.68 l-8.42 0 l0 -14 l2.92 0 l0 11.32 z M197.18 5.800000000000001 c3.9 0 7.26 2.94 7.26 7.2 s-3.36 7.2 -7.26 7.2 s-7.26 -2.94 -7.26 -7.2 s3.36 -7.2 7.26 -7.2 z M197.18 17.46 c2.36 0 4.22 -1.86 4.22 -4.46 s-1.86 -4.46 -4.22 -4.46 s-4.22 1.86 -4.22 4.46 s1.86 4.46 4.22 4.46 z M219.72 12.559999999999999 c0.62 4.7 -2.44 7.64 -6.22 7.64 c-3.98 0 -7.26 -2.94 -7.26 -7.2 s3.36 -7.2 7.26 -7.2 c1.86 0 3.5 0.6 4.7 1.66 l-1.76 1.98 c-0.74 -0.52 -1.74 -0.9 -2.76 -0.9 c-2.54 0 -4.4 1.86 -4.4 4.46 s1.8 4.46 4.22 4.46 c1.84 0 3.12 -0.66 3.52 -2.42 l-3.3 0 l0 -2.48 l6 0 z"></path></g><g id="SvgjsG1031" featureKey="sloganFeature-0" transform="matrix(0.6579440002947942,0,0,0.6579440002947942,113.21046771730428,69.94714055394145)" fill="url(#SvgjsLinearGradient1045)"><path d="M15.1 12.440000000000001 q0 -1.6 -0.82 -2.9 q-0.78 -1.26 -2.13 -1.98 t-2.93 -0.72 q-1.64 0 -2.99 0.74 t-2.11 2.02 q-0.78 1.34 -0.78 2.98 q0 1.56 0.84 2.88 q0.8 1.24 2.15 1.97 t2.92 0.73 t2.92 -0.76 t2.13 -2.04 q0.8 -1.34 0.8 -2.92 z M17.26 12.559999999999999 q0 2.16 -1.12 3.98 q-1.08 1.74 -2.93 2.77 t-3.99 1.03 q-2.22 0 -4.08 -1.08 q-1.82 -1.04 -2.86 -2.86 q-1.08 -1.86 -1.08 -4.08 q0 -2.14 1.14 -3.94 q1.08 -1.72 2.93 -2.73 t3.97 -1.01 q2.18 0 4.04 1.06 q1.82 1.04 2.88 2.82 q1.1 1.86 1.1 4.04 z M23.64 7.279999999999999 l0 10.54 l3.38 0 q1.4 0 2.52 -0.72 q1.06 -0.7 1.66 -1.88 t0.6 -2.58 q0 -1.46 -0.57 -2.68 t-1.63 -1.94 q-1.14 -0.74 -2.62 -0.74 l-3.34 0 z M20.32 7.279999999999999 l-0.96 -2.2 l7.6 0 q1.98 0 3.62 1.02 q1.58 0.98 2.5 2.68 t0.92 3.7 q0 1.5 -0.59 2.97 t-1.63 2.57 q-1 1.08 -2.14 1.54 q-1.1 0.44 -2.62 0.44 l-5.52 0 l0 -12.72 l-1.18 0 z M43.6 14.02 l-4.02 5.98 l-2.18 0 l0 -14.92 l2.18 0 l0 11.14 l7.58 -11.14 l2.62 0 l-4.9 7.02 l2.68 4.02 q0.64 0.96 1.26 1.36 q0.5 0.32 1.06 0.32 l0.62 -0.02 l0 2.22 l-0.4 0 q-1 0.02 -1.46 -0.08 q-0.74 -0.12 -1.36 -0.6 q-0.7 -0.56 -1.42 -1.68 z M56.080000000000005 7.26 l0 4.96 q0.62 -0.36 1.38 -0.48 q0.56 -0.1 1.44 -0.1 l2.84 0 q1.18 0 1.84 -0.54 q0.7 -0.58 0.7 -1.74 q0 -1.1 -0.74 -1.64 q-0.64 -0.46 -1.8 -0.46 l-5.66 0 z M62.46 17.64 l-1.82 -3.82 l-1.74 0 q-0.82 0 -1.44 0.1 q-0.76 0.14 -1.38 0.48 l0 5.6 l-2.18 0 l0 -14.92 l7.84 0 q1.38 0 2.44 0.52 t1.64 1.48 q0.62 1.02 0.62 2.4 q0 1.68 -0.9 2.76 t-2.54 1.5 l1.16 2.38 q0.5 0.74 0.78 1.04 q0.34 0.38 0.65 0.51 t0.81 0.13 l0.22 0 l0.48 -0.02 l0 2.22 q-1.16 0 -1.72 -0.08 q-0.94 -0.16 -1.6 -0.62 q-0.78 -0.56 -1.32 -1.66 z M72.84 20 l-2.14 0 l0 -14.92 l2.14 0 l0 14.92 z M86.34 5.08 l0 9.02 q0 2.16 -0.94 3.66 q-0.82 1.3 -2.24 1.98 q-1.24 0.6 -2.64 0.6 q-1.34 0 -2.72 -0.46 q-1.44 -0.5 -2.36 -1.3 l1.1 -1.92 l0.24 0.24 q0.32 0.28 0.74 0.52 q0.56 0.34 1.24 0.52 q0.84 0.24 1.78 0.24 q1.02 0 1.78 -0.44 q0.64 -0.36 1.08 -1.02 q0.36 -0.52 0.56 -1.22 q0.14 -0.5 0.2 -1.02 l0.02 -0.44 l0 -6.76 l-3.18 0 l-0.96 -2.2 l6.3 0 z M101.84 7.279999999999999 l-5.26 0 l0 12.72 l-2.12 0 l0 -12.72 l-5.32 0 l0 -2.2 l12.7 0 l0 2.2 z M106.82000000000001 14.02 l0 3.8 l9.2 0 l0 2.18 l-11.38 0 l0 -14.92 l10.5 0 l0 2.2 l-8.32 0 l0 4.52 q0.62 -0.36 1.38 -0.48 q0.56 -0.1 1.44 -0.1 l3.26 0 l0 2.22 l-3.26 0 q-0.82 0 -1.44 0.1 q-0.76 0.14 -1.38 0.48 z M136.54000000000002 15.46 q0 1.46 -0.88 2.6 q-0.86 1.08 -2.37 1.68 t-3.41 0.6 q-1.74 0 -3.38 -0.81 t-2.76 -2.25 l1.56 -1.46 q1.94 2.34 4.58 2.34 q1.16 0 2.12 -0.28 q1.06 -0.32 1.64 -0.9 q0.66 -0.64 0.66 -1.52 q0 -1.06 -0.66 -1.6 q-0.56 -0.46 -1.66 -0.6 q-0.64 -0.08 -2.1 -0.08 q-2.68 0 -4.09 -0.98 t-1.41 -2.88 q0 -1.2 0.71 -2.28 t1.95 -1.72 q1.28 -0.68 2.84 -0.68 q1.76 0 3.18 0.54 q1.52 0.58 2.82 1.82 l-1.36 1.6 q-1.22 -0.98 -2.22 -1.37 t-2.42 -0.39 q-0.82 0 -1.53 0.34 t-1.13 0.91 t-0.42 1.21 q0 1.72 3.18 1.72 q2.54 0 4.02 0.52 q1.4 0.5 2 1.52 q0.54 0.9 0.54 2.4 z M153.14000000000001 5.08 l-6.26 14.92 l-2.58 0 l-6.16 -14.92 l2.36 0 l5.1 12.48 l5.14 -12.48 l2.4 0 z M158.12 14.02 l0 3.8 l9.2 0 l0 2.18 l-11.38 0 l0 -14.92 l10.5 0 l0 2.2 l-8.32 0 l0 4.52 q0.62 -0.36 1.38 -0.48 q0.56 -0.1 1.44 -0.1 l3.26 0 l0 2.22 l-3.26 0 q-0.82 0 -1.44 0.1 q-0.76 0.14 -1.38 0.48 z M181.92000000000002 7.279999999999999 l-5.26 0 l0 12.72 l-2.12 0 l0 -12.72 l-5.32 0 l0 -2.2 l12.7 0 l0 2.2 z M190.57999999999998 7.18 l-1.74 -2.1 l2.82 0 l9.58 11.4 l0 -11.4 l2.2 0 l0 14.92 l-2.16 0 l-8.56 -10.26 l0 10.26 l-2.14 0 l0 -12.82 z M212.5 6.66 l-0.82 -1.84 l2.4 0 l7.18 15.18 l-2.44 0 l-0.98 -2.18 l-4.54 0 q-1.28 0 -2.3 0.24 q-0.9 0.22 -1.5 0.58 q-0.54 0.32 -0.72 0.66 l-0.38 0.7 l-2.36 0 z M214.1 15.620000000000001 l2.76 0 l-3.26 -6.3 l-3.3 7.14 q0.44 -0.38 1.34 -0.6 q1.02 -0.24 2.46 -0.24 z M234.51999999999998 20 l-10.46 0 l0 -14.92 l2.18 0 l0 12.74 l8.28 0 l0 2.18 z M250.01999999999998 12.440000000000001 q0 -1.6 -0.82 -2.9 q-0.78 -1.26 -2.13 -1.98 t-2.93 -0.72 q-1.64 0 -2.99 0.74 t-2.11 2.02 q-0.78 1.34 -0.78 2.98 q0 1.56 0.84 2.88 q0.8 1.24 2.15 1.97 t2.92 0.73 t2.92 -0.76 t2.13 -2.04 q0.8 -1.34 0.8 -2.92 z M252.17999999999998 12.559999999999999 q0 2.16 -1.12 3.98 q-1.08 1.74 -2.93 2.77 t-3.99 1.03 q-2.22 0 -4.08 -1.08 q-1.82 -1.04 -2.86 -2.86 q-1.08 -1.86 -1.08 -4.08 q0 -2.14 1.14 -3.94 q1.08 -1.72 2.93 -2.73 t3.97 -1.01 q2.18 0 4.04 1.06 q1.82 1.04 2.88 2.82 q1.1 1.86 1.1 4.04 z M268.36 7 l-1.4 1.64 q-0.82 -0.84 -1.96 -1.32 t-2.4 -0.48 q-1.64 0 -2.99 0.74 t-2.11 2.02 q-0.78 1.34 -0.78 2.98 q0 1.56 0.84 2.88 q0.8 1.24 2.15 1.97 t2.91 0.73 q1.1 0 2.11 -0.38 t1.81 -1.06 l0 -2.72 l-1.92 0 l-0.94 -2.16 l5.02 0 l0 5.8 q-1.14 1.28 -2.73 1.99 t-3.37 0.71 q-2.22 0 -4.08 -1.08 q-1.82 -1.04 -2.86 -2.86 q-1.08 -1.86 -1.08 -4.08 q0 -2.14 1.14 -3.94 q1.08 -1.72 2.93 -2.73 t3.97 -1.01 q1.66 0 3.16 0.64 q1.46 0.6 2.58 1.72 z"></path></g>
			</g>
		</svg>
	